<svg version="1.1" id="Layer_1" xmlns="http://www.w3.org/2000/svg" xmlns:xlink="http://www.w3.org/1999/xlink" x="0px" y="0px"
	 width="100%" viewBox="0 0 1280 320" enable-background="new 0 0 1280 320" xml:space="preserve">
<path fill="#EE0000" opacity="1.000000" stroke="none" 
	d="
M430.000000,1.000001 
	C638.023376,1.000000 846.046692,1.000000 1054.437988,1.322184 
	C1016.286377,40.180088 977.738098,78.687271 939.308899,117.312988 
	C936.623596,120.012009 933.987305,121.075890 930.217407,121.073517 
	C792.247437,120.986816 654.277344,120.973145 516.307312,121.044159 
	C502.872589,121.051071 489.418945,121.325226 476.008423,122.083176 
	C458.589355,123.067680 441.184601,124.444786 423.811829,126.062698 
	C410.385620,127.313065 397.651215,131.327896 385.349426,136.883636 
	C366.671265,145.319077 351.469604,158.564926 336.542694,172.093613 
	C322.915314,184.444489 309.777710,197.337448 296.478363,210.048126 
	C286.637177,219.453690 276.833832,228.899979 267.100525,238.417007 
	C248.789108,256.321564 230.537689,274.287537 212.269363,292.236176 
	C210.130478,294.337646 208.088882,296.539459 205.921692,298.610535 
	C199.211487,305.023071 192.434601,311.366180 185.763565,317.818878 
	C184.929947,318.625214 184.576141,319.927521 184.000000,321.000000 
	C124.333336,321.000000 64.666656,321.006500 5.000034,320.958221 
	C3.666428,320.957153 2.333329,320.333344 1.220379,319.839294 
	C2.435311,318.803192 3.479568,317.977844 4.417291,317.045349 
	C68.527870,253.291641 132.610352,189.509644 196.750870,125.786072 
	C208.181870,114.429382 219.559036,102.990776 231.484009,92.166100 
	C246.096436,78.901947 260.812592,65.677597 276.298187,53.468891 
	C295.240570,38.534904 316.152893,26.826719 339.113953,18.858934 
	C367.509399,9.005342 396.828125,4.681054 426.662689,2.922192 
	C427.808899,2.854618 428.889069,1.666156 430.000000,1.000001 
z"/>
<path fill="#EE0000" opacity="1.000000" stroke="none" 
	d="
M385.000000,321.000000 
	C328.312439,321.000000 271.624878,321.000000 214.564972,320.677551 
	C255.658844,278.873413 297.039032,237.305054 338.659424,195.978592 
	C347.655914,187.045639 357.295685,178.718536 367.033356,170.584305 
	C380.259949,159.535660 395.567596,152.405029 412.203369,147.966583 
	C436.271637,141.545135 461.035034,140.328217 485.597961,140.242050 
	C627.239014,139.745285 768.882690,139.999664 910.525513,139.999527 
	C912.122131,139.999527 913.718750,139.999512 916.224915,139.999512 
	C915.083069,141.284378 914.609436,141.875427 914.077209,142.407898 
	C878.263367,178.233810 842.471924,214.082397 806.530029,249.779434 
	C805.050598,251.248810 802.156189,251.905014 799.918701,251.910034 
	C748.094360,252.026413 696.267578,251.709259 644.445618,252.078659 
	C588.412109,252.478073 532.343872,250.188614 476.348755,253.996140 
	C458.899506,255.182632 443.549622,261.527740 430.988800,273.638885 
	C415.997498,288.093506 401.476196,303.036102 386.800568,317.816284 
	C385.971985,318.650726 385.589935,319.928558 385.000000,321.000000 
z"/>
<path fill="#EE0000" opacity="1.000000" stroke="none" 
	d="
M1086.000000,1.000008 
	C1149.666626,1.000000 1213.333374,0.993913 1277.000000,1.041723 
	C1278.333618,1.042724 1279.666626,1.666667 1280.779785,2.160629 
	C1280.033081,2.723581 1279.452148,3.071508 1278.987549,3.535921 
	C1174.105103,108.390198 1069.229126,213.251083 964.387695,318.146301 
	C963.680969,318.853485 963.452087,320.038269 963.000000,321.000000 
	C898.312439,321.000000 833.624878,321.000000 768.566406,320.678040 
	C771.835693,316.699036 775.468750,313.034729 779.117371,309.385986 
	C880.483337,208.015213 981.853394,106.648491 1083.187134,5.245549 
	C1084.363281,4.068604 1085.072754,2.425517 1086.000000,1.000008 
z"/>
<path fill="#000000" opacity="1.000000" stroke="none" 
	d="
M429.531342,1.000001 
	C428.889069,1.666156 427.808899,2.854618 426.662689,2.922192 
	C396.828125,4.681054 367.509399,9.005342 339.113953,18.858934 
	C316.152893,26.826719 295.240570,38.534904 276.298187,53.468891 
	C260.812592,65.677597 246.096436,78.901947 231.484009,92.166100 
	C219.559036,102.990776 208.181870,114.429382 196.750870,125.786072 
	C132.610352,189.509644 68.527870,253.291641 4.417291,317.045349 
	C3.479568,317.977844 2.435311,318.803192 1.220381,319.339264 
	C1.000000,213.062088 1.000000,107.124176 1.000000,1.000000 
	C143.687500,1.000000 286.375092,1.000000 429.531342,1.000001 
z"/>
<path fill="#000000" opacity="1.000000" stroke="none" 
	d="
M1085.531372,1.000008 
	C1085.072754,2.425517 1084.363281,4.068604 1083.187134,5.245549 
	C981.853394,106.648491 880.483337,208.015213 779.117371,309.385986 
	C775.468750,313.034729 771.835693,316.699036 768.097717,320.678040 
	C640.645752,321.000000 513.291565,321.000000 385.468689,321.000000 
	C385.589935,319.928558 385.971985,318.650726 386.800568,317.816284 
	C401.476196,303.036102 415.997498,288.093506 430.988800,273.638885 
	C443.549622,261.527740 458.899506,255.182632 476.348755,253.996140 
	C532.343872,250.188614 588.412109,252.478073 644.445618,252.078659 
	C696.267578,251.709259 748.094360,252.026413 799.918701,251.910034 
	C802.156189,251.905014 805.050598,251.248810 806.530029,249.779434 
	C842.471924,214.082397 878.263367,178.233810 914.077209,142.407898 
	C914.609436,141.875427 915.083069,141.284378 916.224915,139.999512 
	C913.718750,139.999512 912.122131,139.999527 910.525513,139.999527 
	C768.882690,139.999664 627.239014,139.745285 485.597961,140.242050 
	C461.035034,140.328217 436.271637,141.545135 412.203369,147.966583 
	C395.567596,152.405029 380.259949,159.535660 367.033356,170.584305 
	C357.295685,178.718536 347.655914,187.045639 338.659424,195.978592 
	C297.039032,237.305054 255.658844,278.873413 214.096313,320.677551 
	C204.312439,321.000000 194.624878,321.000000 184.468658,321.000000 
	C184.576141,319.927521 184.929947,318.625214 185.763565,317.818878 
	C192.434601,311.366180 199.211487,305.023071 205.921692,298.610535 
	C208.088882,296.539459 210.130478,294.337646 212.269363,292.236176 
	C230.537689,274.287537 248.789108,256.321564 267.100525,238.417007 
	C276.833832,228.899979 286.637177,219.453690 296.478363,210.048126 
	C309.777710,197.337448 322.915314,184.444489 336.542694,172.093613 
	C351.469604,158.564926 366.671265,145.319077 385.349426,136.883636 
	C397.651215,131.327896 410.385620,127.313065 423.811829,126.062698 
	C441.184601,124.444786 458.589355,123.067680 476.008423,122.083176 
	C489.418945,121.325226 502.872589,121.051071 516.307312,121.044159 
	C654.277344,120.973145 792.247437,120.986816 930.217407,121.073517 
	C933.987305,121.075890 936.623596,120.012009 939.308899,117.312988 
	C977.738098,78.687271 1016.286377,40.180088 1054.903076,1.322184 
	C1065.020874,1.000000 1075.041870,1.000000 1085.531372,1.000008 
z"/>
<path fill="#000000" opacity="1.000000" stroke="none" 
	d="
M963.468628,321.000000 
	C963.452087,320.038269 963.680969,318.853485 964.387695,318.146301 
	C1069.229126,213.251083 1174.105103,108.390198 1278.987549,3.535921 
	C1279.452148,3.071508 1280.033081,2.723581 1280.779785,2.660629 
	C1281.000000,108.902931 1281.000000,214.805862 1281.000000,321.000000 
	C1227.979492,321.000000 1174.958374,321.000000 1121.468506,320.531342 
	C1120.999878,307.137238 1120.999878,294.211761 1120.999878,281.172241 
	C1117.019897,281.172241 1113.727295,281.172241 1110.266846,281.172241 
	C1107.000977,290.710266 1103.770264,300.145477 1100.184937,310.616272 
	C1097.514038,302.963623 1095.146851,296.265350 1092.838501,289.546875 
	C1089.760864,280.589050 1089.780273,280.578613 1080.194946,281.137634 
	C1079.915894,281.153900 1079.652832,281.443481 1079.000000,281.834747 
	C1079.000000,294.743652 1079.000000,307.871826 1079.000000,321.000000 
	C1073.977905,321.000000 1068.955811,321.000000 1063.454834,320.754791 
	C1062.975830,320.509583 1062.855469,320.033569 1062.928223,319.567780 
	C1063.001099,308.841919 1063.001099,298.581848 1063.001099,287.767151 
	C1067.400269,287.767151 1071.122192,287.767151 1074.708984,287.767151 
	C1074.708984,285.267578 1074.708984,283.337250 1074.708984,281.341309 
	C1063.694824,281.341309 1052.971069,281.341309 1042.234497,281.341309 
	C1042.234497,283.621429 1042.234497,285.558411 1042.234497,288.058990 
	C1046.510254,288.058990 1050.578857,288.058990 1055.000000,288.058990 
	C1055.000000,299.414459 1055.000000,310.207245 1055.000000,321.000000 
	C1024.645752,321.000000 994.291565,321.000000 963.468628,321.000000 
z"/>
<path fill="#EE0000" opacity="1.000000" stroke="none" 
	d="
M1079.437500,321.000000 
	C1079.000000,307.871826 1079.000000,294.743652 1079.000000,281.834747 
	C1079.652832,281.443481 1079.915894,281.153900 1080.194946,281.137634 
	C1089.780273,280.578613 1089.760864,280.589050 1092.838501,289.546875 
	C1095.146851,296.265350 1097.514038,302.963623 1100.184937,310.616272 
	C1103.770264,300.145477 1107.000977,290.710266 1110.266846,281.172241 
	C1113.727295,281.172241 1117.019897,281.172241 1120.999878,281.172241 
	C1120.999878,294.211761 1120.999878,307.137238 1121.000000,320.531342 
	C1118.958374,321.000000 1116.916626,321.000000 1114.437500,320.531342 
	C1114.000122,311.446838 1114.000122,302.830994 1114.000122,294.215179 
	C1113.677734,294.169006 1113.355225,294.122864 1113.032837,294.076691 
	C1110.021851,303.051147 1107.010986,312.025574 1104.000000,321.000000 
	C1101.629395,321.000000 1099.258911,321.000000 1096.442261,320.606628 
	C1092.919800,311.456451 1089.843506,302.699677 1086.767090,293.942902 
	C1086.511353,294.014435 1086.255737,294.085938 1086.000000,294.157471 
	C1086.000000,303.104980 1086.000000,312.052490 1086.000000,321.000000 
	C1083.958374,321.000000 1081.916626,321.000000 1079.437500,321.000000 
z"/>
<path fill="#EE0000" opacity="1.000000" stroke="none" 
	d="
M1055.437500,321.000000 
	C1055.000000,310.207245 1055.000000,299.414459 1055.000000,288.058990 
	C1050.578857,288.058990 1046.510254,288.058990 1042.234497,288.058990 
	C1042.234497,285.558411 1042.234497,283.621429 1042.234497,281.341309 
	C1052.971069,281.341309 1063.694824,281.341309 1074.708984,281.341309 
	C1074.708984,283.337250 1074.708984,285.267578 1074.708984,287.767151 
	C1071.122192,287.767151 1067.400269,287.767151 1063.001099,287.767151 
	C1063.001099,298.581848 1063.001099,308.841919 1062.778320,319.722260 
	C1062.357300,320.550659 1062.172119,320.769806 1062.000000,321.000000 
	C1059.958374,321.000000 1057.916626,321.000000 1055.437500,321.000000 
z"/>
<path fill="#000000" opacity="1.000000" stroke="none" 
	d="
M1086.454102,321.000000 
	C1086.000000,312.052490 1086.000000,303.104980 1086.000000,294.157471 
	C1086.255737,294.085938 1086.511353,294.014435 1086.767090,293.942902 
	C1089.843506,302.699677 1092.919800,311.456451 1095.998047,320.606628 
	C1092.969360,321.000000 1089.938843,321.000000 1086.454102,321.000000 
z"/>
<path fill="#000000" opacity="1.000000" stroke="none" 
	d="
M1104.454102,321.000000 
	C1107.010986,312.025574 1110.021851,303.051147 1113.032837,294.076691 
	C1113.355225,294.122864 1113.677734,294.169006 1114.000122,294.215179 
	C1114.000122,302.830994 1114.000122,311.446838 1114.000000,320.531342 
	C1110.969360,321.000000 1107.938843,321.000000 1104.454102,321.000000 
z"/>
<path fill="#FF0000" opacity="1.000000" stroke="none" 
	d="
M1062.250000,321.000000 
	C1062.172119,320.769806 1062.357300,320.550659 1062.705444,320.188049 
	C1062.855469,320.033569 1062.975830,320.509583 1062.987915,320.754791 
	C1063.000000,321.000000 1062.500000,321.000000 1062.250000,321.000000 
z"/>
</svg>